<svg width="252" height="332" viewBox="0 0 252 332" fill="none" xmlns="http://www.w3.org/2000/svg">
<path d="M126 326C157.826 326 188.348 313.357 210.853 290.853C233.357 268.348 246 237.826 246 206C246 190 246 158 214 118C214 118 212.4 163.664 180.816 157.04C129.728 146.368 195.696 46.048 102 6C102 86 6 110 6 206C6 237.826 18.6428 268.348 41.1472 290.853C63.6516 313.357 94.174 326 126 326Z" stroke="#ECF1F5" stroke-width="12" stroke-linejoin="round"/>
<path d="M126 278.016C156.928 278.016 182 245.776 182 206.016C130.8 225.216 112.672 181.008 110 150C86.864 158.848 70 195.216 70 214C70 253.76 95.072 278.016 126 278.016Z" stroke="#ECF1F5" stroke-width="12" stroke-linejoin="round"/>
</svg>
