<svg width="20" height="20" viewBox="0 0 20 20" fill="none" xmlns="http://www.w3.org/2000/svg">
<path d="M0 2C0 0.89543 0.895431 0 2 0H7C8.10457 0 9 0.895431 9 2V7C9 8.10457 8.10457 9 7 9H2C0.89543 9 0 8.10457 0 7V2Z" fill="currentColor"/>
<path d="M11 2C11 0.89543 11.8954 0 13 0H18C19.1046 0 20 0.895431 20 2V7C20 8.10457 19.1046 9 18 9H13C11.8954 9 11 8.10457 11 7V2Z" fill="currentColor"/>
<path d="M0 13C0 11.8954 0.895431 11 2 11H7C8.10457 11 9 11.8954 9 13V18C9 19.1046 8.10457 20 7 20H2C0.89543 20 0 19.1046 0 18V13Z" fill="currentColor"/>
<path d="M11 13C11 11.8954 11.8954 11 13 11H18C19.1046 11 20 11.8954 20 13V18C20 19.1046 19.1046 20 18 20H13C11.8954 20 11 19.1046 11 18V13Z" fill="currentColor"/>
</svg>
