<svg width="16" height="18" viewBox="0 0 16 18" fill="none" xmlns="http://www.w3.org/2000/svg">
<path d="M14.75 4.16673C15.1642 4.16673 15.5 3.83094 15.5 3.41673C15.5 3.00251 15.1642 2.66673 14.75 2.66673V3.41673V4.16673ZM0.75 2.66673C0.335786 2.66673 0 3.00251 0 3.41673C0 3.83094 0.335786 4.16673 0.75 4.16673V3.41673V2.66673ZM14.1258 5.68519C14.1513 5.27176 13.8368 4.91591 13.4234 4.89038C13.01 4.86484 12.6541 5.17929 12.6286 5.59272L13.3772 5.63895L14.1258 5.68519ZM12.9984 11.7723L13.7469 11.8185L13.7469 11.8185L12.9984 11.7723ZM3.43224 16.0301L3.96539 15.5026L3.96506 15.5022L3.43224 16.0301ZM2.50165 11.7723L3.25024 11.7263L3.25022 11.7261L2.50165 11.7723ZM2.8714 5.59272C2.84586 5.17929 2.49001 4.86484 2.07659 4.89038C1.66316 4.91591 1.34871 5.27176 1.37425 5.68519L2.12282 5.63895L2.8714 5.59272ZM3.31093 3.41673V4.16673H3.32127L3.3316 4.16644L3.31093 3.41673ZM4.81798 2.24339L5.52923 2.48137L5.53233 2.47209L5.53519 2.46274L4.81798 2.24339ZM4.84598 2.15184L4.12937 1.93053L4.12877 1.9325L4.84598 2.15184ZM4.92587 1.89317L5.64247 2.11448V2.11448L4.92587 1.89317ZM5.0741 1.46739L4.39872 1.14126L4.39815 1.14245L5.0741 1.46739ZM5.97504 0.76695L6.10224 1.50609L6.10453 1.50569L5.97504 0.76695ZM9.52445 0.76695L9.39497 1.50569L9.39726 1.50609L9.52445 0.76695ZM10.4254 1.46739L11.1013 1.14245L11.1008 1.14127L10.4254 1.46739ZM10.5736 1.89317L11.2902 1.67187L11.2902 1.67187L10.5736 1.89317ZM10.6535 2.15184L11.376 1.95049L11.3732 1.94047L11.3701 1.93054L10.6535 2.15184ZM14.75 3.41673V2.66673H0.75V3.41673V4.16673H14.75V3.41673ZM13.3772 5.63895L12.6286 5.59272L12.2498 11.7261L12.9984 11.7723L13.7469 11.8185L14.1258 5.68519L13.3772 5.63895ZM12.9984 11.7723L12.2498 11.726C12.1757 12.9247 12.1232 13.7556 12.008 14.3801C11.8957 14.9886 11.7409 15.2944 11.5349 15.5022L12.0678 16.0301L12.6006 16.5579C13.107 16.0466 13.3446 15.4031 13.4831 14.6522C13.6186 13.9174 13.6752 12.979 13.7469 11.8185L12.9984 11.7723ZM12.0678 16.0301L11.5349 15.5022C11.3358 15.7032 11.0629 15.84 10.5175 15.9171C9.94522 15.9981 9.18584 16.0001 8.06871 16.0001V16.7501V17.5001C9.14216 17.5001 10.0261 17.5016 10.7276 17.4023C11.4561 17.2993 12.0874 17.076 12.6006 16.5579L12.0678 16.0301ZM8.06871 16.7501V16.0001H7.43129V16.7501V17.5001H8.06871V16.7501ZM7.43129 16.7501V16.0001C6.31397 16.0001 5.55468 15.9983 4.98237 15.9174C4.43712 15.8404 4.1644 15.7037 3.96539 15.5026L3.43224 16.0301L2.89908 16.5576C3.41242 17.0764 4.04394 17.2997 4.77249 17.4027C5.47397 17.5018 6.35803 17.5001 7.43129 17.5001V16.7501ZM3.43224 16.0301L3.96506 15.5022C3.75904 15.2943 3.60401 14.9883 3.4917 14.38C3.37643 13.7557 3.32387 12.9247 3.25024 11.7263L2.50165 11.7723L1.75306 11.8183C1.82437 12.979 1.88092 13.9173 2.01663 14.6523C2.15529 15.4034 2.39308 16.0468 2.89941 16.5579L3.43224 16.0301ZM2.50165 11.7723L3.25022 11.7261L2.8714 5.59272L2.12282 5.63895L1.37425 5.68519L1.75307 11.8185L2.50165 11.7723ZM3.22034 3.41673V4.16673H3.31093V3.41673V2.66673H3.22034V3.41673ZM3.31093 3.41673L3.3316 4.16644C3.8275 4.15277 4.3019 3.97775 4.69313 3.67315L4.23239 3.08136L3.77165 2.48957C3.62512 2.60365 3.45721 2.66241 3.29025 2.66701L3.31093 3.41673ZM4.23239 3.08136L4.69313 3.67315C5.08353 3.3692 5.37182 2.95182 5.52923 2.48137L4.81798 2.24339L4.10674 2.00542C4.03892 2.20811 3.91902 2.37484 3.77165 2.48957L4.23239 3.08136ZM4.81798 2.24339L5.53519 2.46274L5.56319 2.37118L4.84598 2.15184L4.12877 1.9325L4.10077 2.02405L4.81798 2.24339ZM4.84598 2.15184L5.56259 2.37314L5.64247 2.11448L4.92587 1.89317L4.20926 1.67187L4.12938 1.93053L4.84598 2.15184ZM4.92587 1.89317L5.64247 2.11448C5.71724 1.87236 5.73451 1.82467 5.75006 1.79234L5.0741 1.46739L4.39815 1.14245C4.3231 1.29856 4.27119 1.47132 4.20926 1.67187L4.92587 1.89317ZM5.0741 1.46739L5.74948 1.79352C5.79013 1.70935 5.84582 1.64212 5.90789 1.59386L5.44755 1.00176L4.98722 0.409652C4.7364 0.604652 4.5363 0.856353 4.39872 1.14127L5.0741 1.46739ZM5.44755 1.00176L5.90789 1.59386C5.96965 1.54585 6.03649 1.5174 6.10224 1.50609L5.97504 0.76695L5.84785 0.0278146C5.5328 0.0820293 5.23834 0.214412 4.98722 0.409652L5.44755 1.00176ZM5.97504 0.76695L6.10453 1.50569C6.12105 1.50279 6.15042 1.50006 6.39504 1.50006V0.750061V6.10352e-05C6.20814 6.10352e-05 6.02175 -0.00267023 5.84556 0.0282125L5.97504 0.76695ZM6.39504 0.750061V1.50006H9.10445V0.750061V6.10352e-05H6.39504V0.750061ZM9.10445 0.750061V1.50006C9.34908 1.50006 9.37845 1.50279 9.39497 1.50569L9.52445 0.76695L9.65394 0.0282125C9.47775 -0.00267023 9.29136 6.10352e-05 9.10445 6.10352e-05V0.750061ZM9.52445 0.76695L9.39726 1.50609C9.46301 1.5174 9.52985 1.54585 9.59161 1.59386L10.0519 1.00176L10.5123 0.409652C10.2612 0.214411 9.96669 0.0820292 9.65165 0.0278146L9.52445 0.76695ZM10.0519 1.00176L9.59161 1.59386C9.65368 1.64212 9.70937 1.70935 9.75001 1.79352L10.4254 1.46739L11.1008 1.14127C10.9632 0.856354 10.7631 0.604653 10.5123 0.409652L10.0519 1.00176ZM10.4254 1.46739L9.74944 1.79234C9.76498 1.82467 9.78225 1.87236 9.85702 2.11448L10.5736 1.89317L11.2902 1.67187C11.2283 1.47132 11.1764 1.29856 11.1013 1.14245L10.4254 1.46739ZM10.5736 1.89317L9.85702 2.11448L9.9369 2.37314L10.6535 2.15184L11.3701 1.93054L11.2902 1.67187L10.5736 1.89317ZM10.6535 2.15184L9.93105 2.35319C10.0766 2.87528 10.3804 3.34182 10.807 3.67378L11.2676 3.08185L11.7282 2.48992C11.567 2.36455 11.4392 2.17733 11.376 1.95049L10.6535 2.15184ZM11.2676 3.08185L10.807 3.67378C11.2349 4.00666 11.7607 4.18356 12.3029 4.16635L12.2792 3.41673L12.2554 2.66711C12.0734 2.67288 11.8881 2.61438 11.7282 2.48992L11.2676 3.08185Z" fill="#F53942"/>
</svg>
