<svg width="32" height="32" viewBox="0 0 32 32" fill="none" xmlns="http://www.w3.org/2000/svg">
<circle cx="16" cy="16" r="16" fill="#B2F041"/>
<path d="M12 21L12.4 21.3C13.4386 22.0789 14.7018 22.5 16 22.5C17.2982 22.5 18.5614 22.0789 19.6 21.3L20 21" stroke="#1D1D1D" stroke-width="1.4" stroke-linecap="round"/>
<path d="M7 14L7.6 14.8C8.16656 15.5554 9.05573 16 10 16C10.9443 16 11.8334 15.5554 12.4 14.8L13 14" stroke="#1D1D1D" stroke-width="1.4" stroke-linecap="round"/>
<path d="M19 14L19.6 14.8C20.1666 15.5554 21.0557 16 22 16C22.9443 16 23.8334 15.5554 24.4 14.8L25 14" stroke="#1D1D1D" stroke-width="1.4" stroke-linecap="round"/>
<path d="M5.67993 10.4312L5.76935 10.2958C6.75648 8.80071 8.58957 8.10503 10.3201 8.56872" stroke="#1D1D1D" stroke-width="1.4" stroke-linecap="round"/>
<path d="M26.3201 10.4312L26.2307 10.2958C25.2435 8.80072 23.4104 8.10503 21.6799 8.56872" stroke="#1D1D1D" stroke-width="1.4" stroke-linecap="round"/>
</svg>
