<svg width="32" height="32" viewBox="0 0 32 32" fill="none" xmlns="http://www.w3.org/2000/svg">
<circle cx="16" cy="16" r="16" fill="#E5A632"/>
<path d="M12.01 22H14.014H16.018H18.022H20.026" stroke="#1D1D1D" stroke-width="1.4" stroke-linecap="round"/>
<path d="M12.01 15.0001C12.01 16.1046 11.1128 17.0001 10.006 17.0001C8.89925 17.0001 8.00203 16.1046 8.00203 15.0001C8.00203 13.8955 8.89925 13.5001 10.006 13.5001C11.1128 13.5001 12.01 13.8955 12.01 15.0001Z" fill="#1D1D1D"/>
<path d="M24.034 15.0001C24.034 16.1046 23.1367 17.0001 22.03 17.0001C20.9232 17.0001 20.026 16.1046 20.026 15.0001C20.026 13.8955 20.9232 13.5001 22.03 13.5001C23.1367 13.5001 24.034 13.8955 24.034 15.0001Z" fill="#1D1D1D"/>
<path d="M11.974 13L11.8544 13.1059C10.51 14.2957 8.55474 14.4939 7 13.5981" stroke="#1D1D1D" stroke-width="1.4" stroke-linecap="round"/>
<path d="M20.026 13L20.1456 13.1059C21.49 14.2957 23.4453 14.4939 25 13.5981" stroke="#1D1D1D" stroke-width="1.4" stroke-linecap="round"/>
</svg>
