<svg width="18" height="16" viewBox="0 0 18 16" fill="none" xmlns="http://www.w3.org/2000/svg">
<path d="M2.10733 5.32343L1.30963 3.97303C1.26358 3.89499 1.20225 3.82658 1.12916 3.77171C1.05606 3.71684 0.972626 3.67658 0.883616 3.65323C0.794607 3.62988 0.701765 3.62391 0.610392 3.63564C0.519019 3.64737 0.430904 3.67658 0.351079 3.72161C0.271253 3.76663 0.20128 3.82659 0.145155 3.89805C0.0890296 3.96951 0.0478512 4.05108 0.0239706 4.1381C8.99234e-05 4.22513 -0.0060253 4.31589 0.00597439 4.40523C0.0179741 4.49456 0.0478535 4.5807 0.0939067 4.65875L1.73046 7.42903C1.77647 7.50711 1.83778 7.57556 1.91087 7.63046C1.98396 7.68536 2.0674 7.72563 2.15643 7.74899C2.24545 7.77234 2.33831 7.7783 2.42969 7.76655C2.52108 7.75479 2.60919 7.72553 2.68901 7.68046L5.52351 6.08137C5.60392 6.03668 5.67449 5.97687 5.73117 5.9054C5.78784 5.83393 5.82949 5.75221 5.85373 5.66494C5.87796 5.57766 5.8843 5.48657 5.87238 5.39689C5.86046 5.30721 5.83051 5.22072 5.78426 5.14241C5.73801 5.06409 5.67637 4.99549 5.60289 4.94056C5.52942 4.88563 5.44555 4.84545 5.35612 4.82234C5.2667 4.79922 5.17348 4.79363 5.08184 4.80588C4.99019 4.81813 4.90193 4.84798 4.82213 4.89372L3.47736 5.65257C3.99844 4.30741 4.95294 3.16445 6.19679 2.39623C7.44065 1.628 8.90635 1.27619 10.3727 1.39389C11.839 1.5116 13.2264 2.09243 14.3254 3.04873C15.4244 4.00502 16.1755 5.28488 16.4651 6.69513C16.7548 8.10538 16.5674 9.56948 15.9312 10.8665C15.2951 12.1634 14.2446 13.2229 12.9384 13.885C11.6323 14.547 10.1413 14.7757 8.69051 14.5365C7.23972 14.2973 5.90789 13.6033 4.89601 12.5591C4.76803 12.4271 4.59165 12.3501 4.40566 12.3452C4.21967 12.3404 4.03931 12.4079 3.90426 12.533C3.76921 12.6581 3.69054 12.8306 3.68554 13.0124C3.68054 13.1943 3.74963 13.3706 3.87761 13.5026C5.10394 14.7679 6.71939 15.6069 8.47825 15.8922C10.2371 16.1774 12.0431 15.8932 13.6216 15.0828C15.2001 14.2724 16.4647 12.9801 17.223 11.4026C17.9813 9.825 18.1918 8.04847 17.8226 6.34319C17.4533 4.6379 16.5245 3.09718 15.1774 1.95537C13.8303 0.813552 12.1386 0.133132 10.3596 0.0175983C8.58063 -0.0979352 6.81174 0.35774 5.32197 1.31532C3.83221 2.27289 2.7031 3.67996 2.1064 5.32252" fill="currentColor"/>
<path d="M9.81979 3.65851C10.0058 3.65851 10.1842 3.73075 10.3157 3.85935C10.4473 3.98795 10.5212 4.16236 10.5212 4.34422V7.71793L12.1858 9.34536C12.2547 9.40814 12.31 9.48384 12.3483 9.56795C12.3866 9.65207 12.4072 9.74287 12.4089 9.83494C12.4106 9.92701 12.3932 10.0185 12.358 10.1038C12.3227 10.1892 12.2702 10.2668 12.2036 10.3319C12.137 10.397 12.0576 10.4484 11.9703 10.4828C11.883 10.5173 11.7894 10.5343 11.6953 10.5326C11.6011 10.531 11.5082 10.5109 11.4222 10.4734C11.3361 10.4359 11.2587 10.3819 11.1945 10.3145L9.32415 8.48593C9.19257 8.35746 9.11857 8.18316 9.11841 8.00136V4.34422C9.11841 4.16236 9.1923 3.98795 9.32384 3.85935C9.45537 3.73075 9.63377 3.65851 9.81979 3.65851Z" fill="currentColor"/>
</svg>
