<svg width="24" height="23" viewBox="0 0 24 23" fill="none" xmlns="http://www.w3.org/2000/svg">
<path d="M10 6.33301C10.2432 6.33301 10.4812 6.39803 10.6904 6.51953L10.7783 6.5752L10.8613 6.63672C11.0231 6.76672 11.1533 6.93166 11.2422 7.11914L11.2832 7.21484L12.9971 11.6699L17.4521 13.3838C17.6789 13.4711 17.8778 13.6164 18.0293 13.8047L18.0918 13.8887L18.1475 13.9766C18.2688 14.1857 18.333 14.424 18.333 14.667C18.3329 14.9448 18.2491 15.2163 18.0918 15.4453C17.9345 15.6743 17.7115 15.8504 17.4521 15.9502L12.9961 17.6631L11.2832 22.1182C11.1834 22.3776 11.0074 22.6014 10.7783 22.7588C10.5493 22.916 10.2778 23 10 23C9.72217 23 9.45073 22.916 9.22168 22.7588C8.99258 22.6014 8.81657 22.3776 8.7168 22.1182L7.00293 17.6631L2.54785 15.9502C2.28855 15.8504 2.06551 15.6743 1.9082 15.4453C1.77053 15.2449 1.68917 15.0118 1.6709 14.7705L1.66699 14.667L1.6709 14.5625C1.68922 14.3215 1.77073 14.089 1.9082 13.8887L1.9707 13.8047C2.12224 13.6164 2.32115 13.4711 2.54785 13.3838L7.00195 11.6699L8.7168 7.21484L8.75781 7.11914C8.86148 6.90061 9.02129 6.71283 9.22168 6.5752L9.30957 6.51953C9.51878 6.39803 9.75684 6.33301 10 6.33301ZM8.77051 12.6465C8.70145 12.8261 8.59504 12.9899 8.45898 13.126C8.32304 13.2619 8.15986 13.3675 7.98047 13.4365L4.78223 14.666L7.98047 15.8965C8.11495 15.9482 8.24 16.021 8.35156 16.1113L8.45898 16.208L8.55566 16.3145C8.64609 16.4261 8.71872 16.5518 8.77051 16.6865H8.76953L10 19.8848L11.2295 16.6865C11.2985 16.507 11.405 16.344 11.541 16.208L11.6484 16.1113C11.76 16.021 11.885 15.9482 12.0195 15.8965L15.2168 14.666L12.0195 13.4365C11.8401 13.3675 11.677 13.2619 11.541 13.126C11.4049 12.9899 11.2985 12.8261 11.2295 12.6465L10 9.44727L8.77051 12.6465ZM19 1.33301C19.4137 1.33301 19.785 1.58845 19.9336 1.97461L20.8848 4.44824L23.3594 5.40039C23.7452 5.54901 23.9999 5.91954 24 6.33301C24 6.74664 23.7454 7.11797 23.3594 7.2666L20.8848 8.21777L19.9336 10.6924C19.785 11.0785 19.4137 11.333 19 11.333C18.5862 11.333 18.215 11.0785 18.0664 10.6924L17.1143 8.21777L14.6406 7.2666C14.2546 7.11797 14 6.74664 14 6.33301C14.0001 5.91954 14.2548 5.54901 14.6406 5.40039L17.1143 4.44824L18.0664 1.97461L18.1328 1.83594C18.309 1.52853 18.638 1.33301 19 1.33301ZM4 0C4.41368 0 4.78499 0.25458 4.93359 0.640625L5.60645 2.39258L7.35938 3.06641C7.74542 3.21501 8 3.58632 8 4C8 4.41368 7.74542 4.78499 7.35938 4.93359L5.60645 5.60645L4.93359 7.35938C4.78499 7.74543 4.41368 8 4 8C3.58632 8 3.21501 7.74543 3.06641 7.35938L2.39258 5.60645L0.640625 4.93359C0.254581 4.78499 0 4.41368 0 4C2.74029e-06 3.58632 0.25458 3.21501 0.640625 3.06641L2.39258 2.39258L3.06641 0.640625L3.13281 0.50293C3.30898 0.195385 3.63792 0 4 0Z" fill="#B2F041"/>
</svg>
